<?xml version="1.0" standalone="no"?>
<!DOCTYPE svg PUBLIC "-//W3C//DTD SVG 20010904//EN"
 "http://www.w3.org/TR/2001/REC-SVG-20010904/DTD/svg10.dtd">
<svg version="1.0" xmlns="http://www.w3.org/2000/svg"
 width="250.000000pt" height="250.000000pt" viewBox="0 0 250.000000 250.000000"
 preserveAspectRatio="xMidYMid meet">

<g transform="translate(0.000000,250.000000) scale(0.100000,-0.100000)"
fill="#000000" stroke="none">
<path d="M1146 2380 c-20 -49 -20 -90 -3 -133 l14 -32 -56 -1 c-112 -3 -231
-71 -329 -188 -60 -72 -65 -76 -135 -97 -180 -52 -212 -65 -215 -86 -3 -20 59
-216 84 -265 27 -52 18 -99 -40 -210 -29 -56 -72 -134 -96 -173 -122 -198
-151 -296 -111 -379 24 -48 91 -116 116 -116 18 0 19 -5 -5 58 -11 29 -19 71
-19 95 1 23 4 33 6 22 13 -49 24 -69 32 -56 6 10 10 9 14 -4 4 -9 3 -13 -3
-10 -17 11 -11 -11 11 -39 11 -14 40 -37 63 -51 24 -14 49 -39 58 -59 9 -18
30 -49 47 -69 l31 -35 -35 -21 c-20 -12 -47 -21 -61 -21 -13 0 -50 -19 -83
-43 -32 -24 -74 -50 -92 -57 -59 -24 -247 -139 -253 -156 -7 -19 9 -129 30
-201 l15 -53 179 0 179 0 -20 35 c-20 33 -20 35 -3 35 10 0 47 18 83 39 61 37
170 86 176 79 3 -4 -23 -158 -30 -175 -3 -10 104 -13 515 -13 410 0 520 3 520
13 -1 6 -9 51 -19 99 -9 49 -15 88 -12 88 9 0 158 -78 201 -105 21 -13 50 -27
64 -31 18 -4 24 -10 18 -18 -5 -6 -12 -19 -15 -28 -6 -17 6 -18 172 -18 l178
0 11 25 c19 41 45 191 38 218 -6 27 -83 77 -230 150 -45 22 -104 58 -132 79
-28 21 -62 38 -75 38 -14 0 -39 10 -57 23 l-31 24 45 31 c25 18 42 36 39 41
-3 5 0 13 6 17 8 4 9 3 5 -4 -4 -7 -3 -12 3 -12 11 0 81 88 81 101 0 5 4 9 9
9 14 0 -35 -149 -59 -183 -27 -35 -21 -43 17 -24 61 32 101 101 124 214 7 34
16 60 20 58 3 -3 9 -27 13 -55 4 -27 10 -50 14 -50 14 0 52 81 67 142 20 86
19 148 -5 210 -11 29 -20 54 -20 55 0 1 12 -2 28 -6 36 -10 62 -2 117 37 49
34 80 90 70 122 -6 18 -8 17 -43 -6 -33 -23 -43 -25 -92 -19 -120 15 -283 132
-341 247 -24 48 -23 60 24 193 19 55 38 117 42 137 6 33 4 38 -22 51 -33 17
-194 67 -214 67 -10 -1 -8 -4 3 -11 9 -5 15 -15 12 -22 -3 -8 7 -19 22 -26 22
-9 25 -17 22 -41 -3 -17 -1 -30 4 -30 4 0 17 -9 28 -20 14 -14 18 -28 14 -45
-5 -19 -2 -25 10 -25 22 0 31 -27 16 -45 -11 -13 -20 -2 -56 74 -23 50 -56
110 -74 136 -17 25 -29 49 -25 54 3 5 -4 12 -14 16 -11 3 -43 35 -70 70 -101
128 -218 198 -333 199 l-67 1 -10 42 c-6 23 -16 45 -22 49 -7 4 -9 2 -6 -7 3
-8 11 -40 18 -71 13 -59 22 -70 33 -42 9 24 129 14 191 -16 103 -50 233 -206
330 -397 31 -61 112 -265 120 -303 6 -24 123 -328 140 -360 20 -39 19 -57 -2
-31 -18 21 -18 20 -18 -47 0 -61 -5 -78 -44 -158 -40 -80 -59 -103 -184 -229
l-140 -140 6 80 c3 44 17 130 33 190 24 97 27 129 28 280 2 321 -46 517 -172
702 -49 72 -136 169 -166 185 -11 6 5 -16 38 -48 154 -154 261 -372 239 -484
-9 -45 -37 -75 -51 -54 -4 6 -25 24 -47 38 -22 15 -40 33 -40 39 -1 7 -6 11
-13 9 -31 -6 -185 121 -219 181 -19 33 -15 3 4 -38 9 -19 21 -35 27 -35 6 -1
31 -19 56 -41 43 -38 44 -40 25 -55 -11 -8 -25 -12 -32 -10 -16 7 -16 -4 0
-25 11 -15 15 -15 32 -2 19 15 19 15 -4 8 -34 -10 -18 10 21 26 24 10 33 10
36 1 2 -7 10 -12 18 -12 8 0 14 -4 14 -10 0 -5 -9 -10 -21 -10 -33 0 -75 -30
-93 -67 -23 -48 -20 -53 11 -14 95 120 253 29 253 -146 0 -25 -5 -54 -11 -65
-10 -18 -9 -20 6 -15 9 4 18 7 20 7 2 0 1 9 -2 20 -4 15 0 20 13 21 11 0 14 3
7 6 -15 5 -18 33 -4 33 5 0 16 3 25 6 11 4 17 -4 22 -30 10 -57 -55 -220 -117
-291 -112 -127 -380 -176 -591 -107 -48 16 -54 22 -110 112 -54 87 -96 167
-112 214 -4 10 -9 17 -11 14 -9 -9 42 -122 85 -188 9 -14 26 -39 38 -57 26
-38 28 -51 5 -32 -37 31 -153 170 -148 179 3 4 -3 28 -14 52 -41 96 -64 227
-68 382 -2 82 -5 152 -8 154 -9 9 -5 -242 5 -312 11 -76 45 -195 68 -241 13
-26 13 -28 0 -18 -24 20 -95 172 -117 248 -11 39 -20 60 -20 47 -2 -54 77
-238 139 -323 16 -22 66 -81 112 -130 102 -111 121 -142 155 -249 15 -46 28
-79 31 -72 2 7 -3 33 -12 59 -9 26 -16 48 -16 49 0 1 13 12 30 24 20 14 28 16
24 7 -6 -17 77 -82 119 -92 15 -4 27 -13 27 -21 0 -7 12 -19 27 -26 36 -18 40
-53 8 -74 -31 -20 -71 -7 -83 27 -7 18 -14 11 -57 -50 -26 -39 -53 -71 -59
-72 -38 -3 51 -17 109 -17 39 1 58 3 43 5 -34 5 -34 7 -6 45 l21 31 24 -29
c28 -35 28 -41 6 -47 -10 -3 14 -5 52 -5 39 0 79 3 90 8 19 8 19 9 -2 9 -15 1
-32 18 -57 60 -20 32 -36 66 -36 74 0 9 -16 29 -34 44 l-35 27 47 24 c55 27
104 71 95 85 -11 18 32 -11 60 -41 19 -19 35 -28 47 -25 27 7 31 -20 28 -162
l-3 -120 -33 -3 c-29 -3 -31 -5 -21 -23 14 -27 -6 -51 -40 -47 -20 2 -27 9
-29 30 l-3 28 -149 0 c-82 0 -154 2 -162 5 -9 4 -13 -4 -13 -27 0 -28 -4 -33
-26 -36 -31 -4 -58 23 -41 40 20 20 13 28 -23 28 -40 0 -42 5 -48 113 l-3 68
25 -6 c15 -3 40 -22 58 -41 32 -34 66 -44 79 -23 3 6 2 14 -4 18 -6 3 -12 20
-15 36 -4 27 -4 26 -6 -8 l-1 -39 -57 51 c-31 28 -108 87 -171 132 -152 109
-185 155 -235 329 l-25 85 -4 -55 c-5 -69 6 -153 28 -216 54 -156 48 -177 -10
-38 -57 137 -90 289 -88 402 2 58 26 237 43 317 18 81 57 190 108 300 128 271
273 409 447 423 61 5 67 3 94 -23 33 -31 41 -24 11 9 -38 43 -53 135 -30 193
l11 28 23 -45 c13 -25 24 -39 25 -32 0 18 -25 66 -43 80 -12 10 -17 6 -31 -28z
m-468 -458 c-22 -51 -63 -111 -71 -103 -14 14 1 49 24 56 11 4 18 13 16 20 -3
7 0 18 6 24 12 12 30 15 25 3z m-83 -168 c-8 -20 -15 -38 -15 -41 0 -2 -4 -1
-10 2 -25 15 -4 75 27 75 11 0 10 -7 -2 -36z m-25 -60 c0 -3 -5 -15 -11 -26
-9 -16 -13 -18 -20 -7 -4 8 -3 19 3 26 11 13 28 18 28 7z m1461 -346 c95 -93
281 -155 345 -114 61 41 26 -29 -37 -72 -43 -30 -124 -27 -169 6 -35 27 -49
29 -27 4 56 -62 103 -234 79 -292 -10 -23 -11 -22 -11 15 -1 56 -41 135 -121
240 -50 67 -79 117 -110 195 -56 143 -56 139 -24 100 15 -19 49 -56 75 -82z
m-323 -25 c16 -103 16 -103 -13 -103 -29 0 -34 24 -7 39 15 9 15 10 -5 11 -14
0 -23 6 -23 16 0 10 6 14 14 11 10 -4 13 -1 10 8 -3 8 -12 11 -20 8 -8 -3 -14
-2 -14 3 0 12 34 83 41 84 3 0 11 -35 17 -77z m-1222 -21 c-12 -58 -27 -89
-84 -174 -118 -176 -143 -242 -117 -304 17 -42 1 -36 -21 8 -25 48 -14 111 38
214 25 49 66 122 92 163 26 40 59 98 74 128 15 30 28 50 30 45 1 -5 -4 -41
-12 -80z m1235 -259 c-8 -15 -10 -15 -11 -2 0 17 10 32 18 25 2 -3 -1 -13 -7
-23z m1 -45 c-5 -23 -19 -38 -35 -38 -11 0 3 43 17 52 19 13 24 9 18 -14z
m-1135 -110 c-3 -8 -6 -5 -6 6 -1 11 2 17 5 13 3 -3 4 -12 1 -19z m-200 -40
c-3 -8 -6 -5 -6 6 -1 11 2 17 5 13 3 -3 4 -12 1 -19z m210 -10 c-3 -8 -6 -5
-6 6 -1 11 2 17 5 13 3 -3 4 -12 1 -19z m-117 -93 c13 -14 21 -25 18 -25 -2 0
-15 11 -28 25 -13 14 -21 25 -18 25 2 0 15 -11 28 -25z m540 -30 c0 -11 -14 7
-31 40 -7 13 -3 12 10 -5 11 -14 21 -29 21 -35z m36 32 c8 3 14 -1 14 -11 0
-22 -14 -20 -36 7 -10 12 -12 17 -5 10 7 -6 20 -9 27 -6z m130 -35 c59 -15 63
-15 117 5 l57 21 -2 -25 c-3 -27 -37 -57 -97 -88 -30 -15 -40 -16 -70 -5 -60
21 -96 55 -96 90 0 23 4 29 15 24 8 -3 42 -13 76 -22z m480 -26 c-3 -11 -6
-29 -6 -38 0 -12 -8 -18 -24 -18 -40 0 -56 11 -56 36 0 29 11 30 35 4 27 -30
38 -25 31 15 -6 29 -4 34 9 28 11 -4 15 -13 11 -27z m-1006 -34 c0 -5 12 -15
26 -22 24 -13 24 -15 8 -27 -26 -19 -29 -17 -41 22 -6 20 -7 35 -2 35 5 0 9
-4 9 -8z m1250 -26 c0 -2 -8 -10 -17 -17 -16 -13 -17 -12 -4 4 13 16 21 21 21
13z m140 -20 c0 -2 -8 -10 -17 -17 -16 -13 -17 -12 -4 4 13 16 21 21 21 13z
m-1043 -368 c-3 -8 -6 -5 -6 6 -1 11 2 17 5 13 3 -3 4 -12 1 -19z m428 2 c3
-5 1 -10 -4 -10 -6 0 -11 5 -11 10 0 6 2 10 4 10 3 0 8 -4 11 -10z m-435 -55
c0 -8 -4 -15 -10 -15 -5 0 -7 7 -4 15 4 8 8 15 10 15 2 0 4 -7 4 -15z m448
-20 c-3 -3 -9 2 -12 12 -6 14 -5 15 5 6 7 -7 10 -15 7 -18z m-458 -50 c0 -8
-4 -15 -10 -15 -5 0 -7 7 -4 15 4 8 8 15 10 15 2 0 4 -7 4 -15z m467 -17 c-3
-8 -6 -5 -6 6 -1 11 2 17 5 13 3 -3 4 -12 1 -19z m-480 -60 c-3 -8 -6 -5 -6 6
-1 11 2 17 5 13 3 -3 4 -12 1 -19z m497 6 c3 -8 2 -12 -4 -9 -6 3 -10 10 -10
16 0 14 7 11 14 -7z"/>
<path d="M1130 2153 c-37 -24 -90 -75 -90 -86 0 -6 22 10 48 34 26 24 57 49
68 56 10 6 14 12 9 12 -6 1 -22 -6 -35 -16z"/>
<path d="M1298 2111 c20 -22 39 -37 41 -35 6 5 -60 74 -71 74 -4 0 9 -18 30
-39z"/>
<path d="M1671 1916 c12 -20 23 -36 25 -36 7 0 -25 58 -36 65 -5 3 -1 -10 11
-29z"/>
<path d="M946 1885 c-35 -52 -66 -115 -66 -132 0 -4 18 25 40 66 21 40 49 84
61 97 12 13 18 24 12 24 -6 0 -27 -25 -47 -55z"/>
<path d="M1025 1820 c-4 -17 -5 -34 -2 -36 3 -3 8 9 12 26 4 17 5 34 2 36 -3
3 -8 -9 -12 -26z"/>
<path d="M1716 1837 c3 -10 9 -15 12 -12 3 3 0 11 -7 18 -10 9 -11 8 -5 -6z"/>
<path d="M711 1793 c0 -6 -4 -20 -7 -30 -5 -14 -4 -15 5 -7 7 7 11 20 8 30 -3
11 -5 14 -6 7z"/>
<path d="M1022 1724 c-1 -28 -5 -73 -8 -100 -4 -38 -3 -45 6 -32 6 11 9 51 7
100 -2 51 -4 63 -5 32z"/>
<path d="M1750 1740 c0 -8 5 -22 10 -30 9 -13 10 -13 10 0 0 8 -5 22 -10 30
-9 13 -10 13 -10 0z"/>
<path d="M697 1733 c-3 -5 -8 -34 -11 -64 l-6 -54 14 60 c13 58 14 76 3 58z"/>
<path d="M862 1715 c-7 -14 -12 -31 -12 -38 1 -7 7 3 16 22 17 39 13 54 -4 16z"/>
<path d="M1256 1707 c3 -10 9 -15 12 -12 3 3 0 11 -7 18 -10 9 -11 8 -5 -6z"/>
<path d="M1776 1645 c22 -185 22 -215 9 -405 -4 -63 -3 -70 7 -45 18 48 14
377 -6 445 l-15 55 5 -50z"/>
<path d="M1450 1647 c0 -4 10 -27 22 -50 12 -23 23 -53 24 -66 5 -37 13 -53
25 -45 7 4 7 9 1 13 -5 3 -12 17 -16 31 -6 21 -2 19 26 -15 52 -62 98 -108 98
-97 0 6 -7 17 -15 25 -8 8 -12 17 -9 20 3 3 -1 18 -10 34 -8 15 -15 24 -16 20
0 -5 5 -17 11 -29 6 -11 9 -22 6 -24 -4 -4 -90 106 -130 166 -10 13 -17 21
-17 17z"/>
<path d="M941 1590 c-2 -29 -59 -137 -75 -143 -10 -4 -16 -18 -16 -39 0 -25 3
-29 12 -20 7 7 13 18 13 25 0 17 58 117 68 117 5 0 5 -5 2 -10 -4 -6 -2 -16 4
-23 5 -7 14 -25 20 -40 10 -24 8 -27 -17 -34 -42 -10 -95 -49 -117 -85 -10
-18 -20 -27 -23 -20 -2 6 4 19 12 28 20 19 20 33 1 58 -8 11 -15 40 -16 65
l-1 46 -13 -55 c-8 -30 -14 -68 -14 -85 1 -29 1 -29 13 8 l12 38 13 -25 c12
-21 11 -27 -3 -41 -18 -18 -21 -41 -6 -50 10 -6 3 -35 -9 -35 -4 0 -12 17 -18
38 l-10 37 -3 -57 c-2 -32 -3 -64 -4 -70 -1 -7 7 -12 17 -10 12 2 17 -4 17
-19 0 -15 -5 -19 -15 -15 -11 4 -15 -1 -14 -17 0 -12 3 -16 6 -9 8 20 36 15
31 -6 -3 -12 1 -18 12 -18 15 0 16 5 8 34 -10 37 2 115 27 162 20 38 82 80
118 80 40 0 85 -26 107 -63 11 -18 20 -26 20 -19 0 28 -33 73 -71 98 -44 27
-66 68 -79 144 -4 25 -8 38 -9 30z m-138 -336 c8 -8 -3 -34 -14 -34 -5 0 -9 9
-9 20 0 19 11 26 23 14z"/>
<path d="M1830 1593 c0 -4 5 -15 10 -23 8 -13 10 -13 10 2 0 9 -4 20 -10 23
-5 3 -10 3 -10 -2z"/>
<path d="M811 1554 c0 -11 3 -14 6 -6 3 7 2 16 -1 19 -3 4 -6 -2 -5 -13z"/>
<path d="M1006 1554 c-10 -25 -7 -98 5 -114 9 -13 10 -12 5 3 -3 9 -1 17 5 17
21 0 96 -44 134 -79 l39 -36 -34 40 c-19 22 -45 54 -58 70 -12 17 -19 22 -16
13 7 -22 3 -22 -43 -3 -35 15 -35 16 -31 60 6 47 4 55 -6 29z"/>
<path d="M1853 1510 c0 -25 2 -35 4 -22 2 12 2 32 0 45 -2 12 -4 2 -4 -23z"/>
<path d="M1330 1533 c0 -4 5 -15 10 -23 8 -13 10 -13 10 2 0 9 -4 20 -10 23
-5 3 -10 3 -10 -2z"/>
<path d="M607 1513 c-4 -3 -6 -40 -6 -82 l2 -76 8 79 c8 81 8 92 -4 79z"/>
<path d="M1158 1483 c2 -13 11 -23 18 -23 8 0 14 -3 14 -7 0 -12 70 -57 77
-50 3 4 11 3 17 -2 6 -4 25 -11 41 -15 29 -6 29 -5 -6 14 -20 11 -53 39 -74
62 -39 46 -38 35 2 -19 37 -50 6 -40 -47 15 -38 39 -46 44 -42 25z"/>
<path d="M862 1480 c0 -14 2 -19 5 -12 2 6 2 18 0 25 -3 6 -5 1 -5 -13z"/>
<path d="M1356 1477 c3 -10 9 -15 12 -12 3 3 0 11 -7 18 -10 9 -11 8 -5 -6z"/>
<path d="M1863 1420 c0 -25 2 -35 4 -22 2 12 2 32 0 45 -2 12 -4 2 -4 -23z"/>
<path d="M1171 1440 c0 -15 38 -91 39 -79 0 4 -9 26 -20 50 -11 24 -19 37 -19
29z"/>
<path d="M1059 1419 c18 -11 35 -18 38 -15 5 5 -50 36 -64 36 -4 0 7 -9 26
-21z"/>
<path d="M885 1420 c-3 -6 1 -7 9 -4 18 7 21 14 7 14 -6 0 -13 -4 -16 -10z"/>
<path d="M1580 1417 c0 -1 14 -15 30 -30 26 -25 30 -26 30 -10 0 12 -11 23
-30 30 -16 6 -30 11 -30 10z"/>
<path d="M950 1371 c0 -6 5 -11 10 -11 6 0 10 -6 10 -14 0 -7 9 -16 20 -19 28
-7 42 -52 38 -122 -3 -51 -7 -62 -27 -72 -16 -7 -31 -8 -45 -2 -18 9 -21 20
-24 81 -1 39 -9 79 -16 90 -19 26 -27 10 -29 -55 -2 -96 61 -160 122 -126 40
23 52 56 49 131 -4 82 -28 121 -76 126 -18 2 -32 -1 -32 -7z"/>
<path d="M1473 1373 c-8 -3 4 -20 30 -43 38 -36 42 -43 41 -87 -1 -62 -8 -101
-21 -114 -17 -17 -54 -6 -72 21 -9 13 -11 21 -5 17 14 -8 6 92 -8 110 -26 33
-37 -29 -18 -99 13 -44 43 -68 86 -68 35 0 56 20 73 69 36 108 -28 226 -106
194z"/>
<path d="M1857 1353 c-3 -5 -8 -39 -12 -78 -8 -81 -45 -217 -80 -293 -13 -29
-19 -50 -13 -46 32 20 94 220 106 343 8 79 8 89 -1 74z"/>
<path d="M1205 1340 c3 -5 8 -10 11 -10 2 0 4 5 4 10 0 6 -5 10 -11 10 -5 0
-7 -4 -4 -10z"/>
<path d="M954 1286 c-19 -50 22 -134 46 -96 11 17 13 70 4 94 -8 20 -43 21
-50 2z"/>
<path d="M1476 1284 c-12 -32 -6 -94 9 -100 24 -9 45 15 45 51 0 46 -9 65 -30
65 -10 0 -21 -7 -24 -16z"/>
<path d="M1772 1140 c0 -14 2 -19 5 -12 2 6 2 18 0 25 -3 6 -5 1 -5 -13z"/>
<path d="M1220 1100 c0 -5 5 -10 10 -10 6 0 10 5 10 10 0 6 -4 10 -10 10 -5 0
-10 -4 -10 -10z"/>
<path d="M1761 1094 c0 -11 3 -14 6 -6 3 7 2 16 -1 19 -3 4 -6 -2 -5 -13z"/>
<path d="M1025 970 c7 -11 92 -50 109 -50 9 0 -101 59 -112 60 -2 0 0 -4 3
-10z"/>
<path d="M1424 954 c-17 -14 -17 -15 -1 -10 10 3 23 6 28 6 5 0 9 5 9 10 0 14
-13 12 -36 -6z"/>
<path d="M1375 930 c-3 -6 1 -7 9 -4 18 7 21 14 7 14 -6 0 -13 -4 -16 -10z"/>
<path d="M1283 913 c9 -2 25 -2 35 0 9 3 1 5 -18 5 -19 0 -27 -2 -17 -5z"/>
<path d="M1472 590 c-1 -14 -5 -36 -8 -50 -5 -19 -4 -22 5 -14 7 7 11 28 8 50
-2 22 -4 28 -5 14z"/>
<path d="M1159 548 c-20 -18 -28 -27 -19 -20 9 6 21 12 27 12 13 0 38 29 31
35 -3 3 -20 -10 -39 -27z"/>
<path d="M1198 498 c5 -5 16 -8 23 -6 8 3 3 7 -10 11 -17 4 -21 3 -13 -5z"/>
<path d="M1359 478 c30 -34 42 -35 67 -5 19 22 19 22 -2 5 -27 -23 -32 -23
-63 5 l-26 22 24 -27z"/>
<path d="M1472 450 c0 -14 2 -19 5 -12 2 6 2 18 0 25 -3 6 -5 1 -5 -13z"/>
<path d="M1450 390 c-9 -6 -10 -10 -3 -10 6 0 15 5 18 10 8 12 4 12 -15 0z"/>
<path d="M1004 319 c-10 -17 13 -36 27 -22 12 12 4 33 -11 33 -5 0 -12 -5 -16
-11z"/>
<path d="M1404 319 c-10 -17 13 -36 27 -22 12 12 4 33 -11 33 -5 0 -12 -5 -16
-11z"/>
</g>
</svg>
